<svg width="211" height="66" viewBox="0 0 211 66" fill="none" xmlns="http://www.w3.org/2000/svg">
<path d="M53.344 43.958C53.064 44.042 52.616 44.126 52 44.21C51.412 44.294 50.796 44.336 50.152 44.336C49.536 44.336 48.976 44.294 48.472 44.21C47.996 44.126 47.59 43.958 47.254 43.706C46.918 43.454 46.652 43.118 46.456 42.698C46.288 42.25 46.204 41.676 46.204 40.976V31.652C46.204 30.504 45.91 29.706 45.322 29.258C44.762 28.782 44.062 28.544 43.222 28.544C42.662 28.544 42.13 28.614 41.626 28.754C41.122 28.894 40.716 29.062 40.408 29.258V43.958C40.128 44.042 39.68 44.126 39.064 44.21C38.476 44.294 37.86 44.336 37.216 44.336C36.6 44.336 36.04 44.294 35.536 44.21C35.06 44.126 34.654 43.958 34.318 43.706C33.982 43.454 33.716 43.118 33.52 42.698C33.352 42.25 33.268 41.676 33.268 40.976V16.616C33.576 16.56 34.024 16.49 34.612 16.406C35.228 16.294 35.844 16.238 36.46 16.238C37.076 16.238 37.622 16.28 38.098 16.364C38.602 16.448 39.022 16.616 39.358 16.868C39.694 17.12 39.946 17.47 40.114 17.918C40.31 18.338 40.408 18.898 40.408 19.598V23.714C40.772 23.574 41.318 23.42 42.046 23.252C42.802 23.056 43.628 22.958 44.524 22.958C47.296 22.958 49.452 23.658 50.992 25.058C52.56 26.43 53.344 28.488 53.344 31.232V43.958ZM76.7784 33.794C76.7784 35.53 76.5124 37.084 75.9804 38.456C75.4484 39.8 74.6924 40.934 73.7124 41.858C72.7604 42.782 71.6124 43.482 70.2684 43.958C68.9244 44.434 67.4264 44.672 65.7744 44.672C64.1224 44.672 62.6244 44.42 61.2804 43.916C59.9364 43.412 58.7744 42.698 57.7944 41.774C56.8424 40.822 56.1004 39.674 55.5684 38.33C55.0364 36.986 54.7704 35.474 54.7704 33.794C54.7704 32.142 55.0364 30.644 55.5684 29.3C56.1004 27.956 56.8424 26.822 57.7944 25.898C58.7744 24.946 59.9364 24.218 61.2804 23.714C62.6244 23.21 64.1224 22.958 65.7744 22.958C67.4264 22.958 68.9244 23.224 70.2684 23.756C71.6124 24.26 72.7604 24.988 73.7124 25.94C74.6924 26.864 75.4484 27.998 75.9804 29.342C76.5124 30.686 76.7784 32.17 76.7784 33.794ZM62.0784 33.794C62.0784 35.502 62.4004 36.818 63.0444 37.742C63.7164 38.638 64.6404 39.086 65.8164 39.086C66.9924 39.086 67.8884 38.624 68.5044 37.7C69.1484 36.776 69.4704 35.474 69.4704 33.794C69.4704 32.114 69.1484 30.826 68.5044 29.93C67.8604 29.006 66.9504 28.544 65.7744 28.544C64.5984 28.544 63.6884 29.006 63.0444 29.93C62.4004 30.826 62.0784 32.114 62.0784 33.794ZM78.2457 16.658C78.5257 16.574 78.9737 16.49 79.5897 16.406C80.2057 16.294 80.8357 16.238 81.4797 16.238C82.0957 16.238 82.6417 16.28 83.1177 16.364C83.6217 16.448 84.0417 16.616 84.3777 16.868C84.7137 17.12 84.9657 17.47 85.1337 17.918C85.3017 18.338 85.3857 18.898 85.3857 19.598V23.714C86.0857 23.434 86.7437 23.238 87.3597 23.126C88.0037 23.014 88.7037 22.958 89.4597 22.958C90.8037 22.958 92.0777 23.196 93.2817 23.672C94.4857 24.148 95.5497 24.848 96.4737 25.772C97.3977 26.668 98.1257 27.788 98.6577 29.132C99.1897 30.476 99.4557 32.03 99.4557 33.794C99.4557 35.614 99.1757 37.21 98.6157 38.582C98.0837 39.926 97.3277 41.046 96.3477 41.942C95.3677 42.838 94.1637 43.524 92.7357 44C91.3357 44.448 89.7817 44.672 88.0737 44.672C86.2257 44.672 84.6577 44.448 83.3697 44C82.0817 43.58 80.9897 43.048 80.0937 42.404C78.8617 41.536 78.2457 40.416 78.2457 39.044V16.658ZM88.0737 39.044C89.3617 39.044 90.3557 38.61 91.0557 37.742C91.7837 36.846 92.1477 35.53 92.1477 33.794C92.1477 32.03 91.7837 30.714 91.0557 29.846C90.3277 28.978 89.3477 28.544 88.1157 28.544C87.5557 28.544 87.0657 28.6 86.6457 28.712C86.2537 28.824 85.8197 28.992 85.3437 29.216V38.372C85.6517 38.568 86.0157 38.736 86.4357 38.876C86.8837 38.988 87.4297 39.044 88.0737 39.044ZM111.629 44.672C109.977 44.672 108.437 44.448 107.009 44C105.609 43.524 104.377 42.824 103.313 41.9C102.277 40.976 101.451 39.814 100.835 38.414C100.247 37.014 99.9532 35.376 99.9532 33.5C99.9532 31.652 100.247 30.07 100.835 28.754C101.451 27.41 102.249 26.318 103.229 25.478C104.209 24.61 105.329 23.98 106.589 23.588C107.849 23.168 109.137 22.958 110.453 22.958C111.937 22.958 113.281 23.182 114.485 23.63C115.717 24.078 116.767 24.694 117.635 25.478C118.531 26.262 119.217 27.2 119.693 28.292C120.197 29.384 120.449 30.574 120.449 31.862C120.449 32.814 120.183 33.542 119.651 34.046C119.119 34.55 118.377 34.872 117.425 35.012L107.051 36.566C107.359 37.49 107.989 38.19 108.941 38.666C109.893 39.114 110.985 39.338 112.217 39.338C113.365 39.338 114.443 39.198 115.451 38.918C116.487 38.61 117.327 38.26 117.971 37.868C118.419 38.148 118.797 38.54 119.105 39.044C119.413 39.548 119.567 40.08 119.567 40.64C119.567 41.9 118.979 42.838 117.803 43.454C116.907 43.93 115.899 44.252 114.779 44.42C113.659 44.588 112.609 44.672 111.629 44.672ZM110.453 28.166C109.781 28.166 109.193 28.278 108.689 28.502C108.213 28.726 107.821 29.02 107.513 29.384C107.205 29.72 106.967 30.112 106.799 30.56C106.659 30.98 106.575 31.414 106.547 31.862L113.729 30.686C113.645 30.126 113.337 29.566 112.805 29.006C112.273 28.446 111.489 28.166 110.453 28.166ZM132.58 44.672C130.928 44.672 129.388 44.448 127.96 44C126.56 43.524 125.328 42.824 124.264 41.9C123.228 40.976 122.402 39.814 121.786 38.414C121.198 37.014 120.904 35.376 120.904 33.5C120.904 31.652 121.198 30.07 121.786 28.754C122.402 27.41 123.2 26.318 124.18 25.478C125.16 24.61 126.28 23.98 127.54 23.588C128.8 23.168 130.088 22.958 131.404 22.958C132.888 22.958 134.232 23.182 135.436 23.63C136.668 24.078 137.718 24.694 138.586 25.478C139.482 26.262 140.168 27.2 140.644 28.292C141.148 29.384 141.4 30.574 141.4 31.862C141.4 32.814 141.134 33.542 140.602 34.046C140.07 34.55 139.328 34.872 138.376 35.012L128.002 36.566C128.31 37.49 128.94 38.19 129.892 38.666C130.844 39.114 131.936 39.338 133.168 39.338C134.316 39.338 135.394 39.198 136.402 38.918C137.438 38.61 138.278 38.26 138.922 37.868C139.37 38.148 139.748 38.54 140.056 39.044C140.364 39.548 140.518 40.08 140.518 40.64C140.518 41.9 139.93 42.838 138.754 43.454C137.858 43.93 136.85 44.252 135.73 44.42C134.61 44.588 133.56 44.672 132.58 44.672ZM131.404 28.166C130.732 28.166 130.144 28.278 129.64 28.502C129.164 28.726 128.772 29.02 128.464 29.384C128.156 29.72 127.918 30.112 127.75 30.56C127.61 30.98 127.526 31.414 127.498 31.862L134.68 30.686C134.596 30.126 134.288 29.566 133.756 29.006C133.224 28.446 132.44 28.166 131.404 28.166ZM162.897 43.958C162.617 44.042 162.169 44.126 161.553 44.21C160.965 44.294 160.349 44.336 159.705 44.336C159.089 44.336 158.529 44.294 158.025 44.21C157.549 44.126 157.143 43.958 156.807 43.706C156.471 43.454 156.205 43.118 156.009 42.698C155.841 42.25 155.757 41.676 155.757 40.976V31.652C155.757 30.504 155.463 29.706 154.875 29.258C154.315 28.782 153.615 28.544 152.775 28.544C152.215 28.544 151.683 28.614 151.179 28.754C150.675 28.894 150.269 29.062 149.961 29.258V43.958C149.681 44.042 149.233 44.126 148.617 44.21C148.029 44.294 147.413 44.336 146.769 44.336C146.153 44.336 145.593 44.294 145.089 44.21C144.613 44.126 144.207 43.958 143.871 43.706C143.535 43.454 143.269 43.118 143.073 42.698C142.905 42.25 142.821 41.676 142.821 40.976V16.616C143.129 16.56 143.577 16.49 144.165 16.406C144.781 16.294 145.397 16.238 146.013 16.238C146.629 16.238 147.175 16.28 147.651 16.364C148.155 16.448 148.575 16.616 148.911 16.868C149.247 17.12 149.499 17.47 149.667 17.918C149.863 18.338 149.961 18.898 149.961 19.598V23.714C150.325 23.574 150.871 23.42 151.599 23.252C152.355 23.056 153.181 22.958 154.077 22.958C156.849 22.958 159.005 23.658 160.545 25.058C162.113 26.43 162.897 28.488 162.897 31.232V43.958ZM165.205 23.882C165.485 23.798 165.919 23.714 166.507 23.63C167.123 23.546 167.753 23.504 168.397 23.504C169.013 23.504 169.559 23.546 170.035 23.63C170.539 23.714 170.959 23.882 171.295 24.134C171.631 24.386 171.883 24.736 172.051 25.184C172.247 25.604 172.345 26.164 172.345 26.864V35.894C172.345 37.042 172.625 37.868 173.185 38.372C173.745 38.848 174.557 39.086 175.621 39.086C176.265 39.086 176.783 39.03 177.175 38.918C177.595 38.806 177.917 38.694 178.141 38.582V23.882C178.421 23.798 178.855 23.714 179.443 23.63C180.059 23.546 180.689 23.504 181.333 23.504C181.949 23.504 182.495 23.546 182.971 23.63C183.475 23.714 183.895 23.882 184.231 24.134C184.567 24.386 184.819 24.736 184.987 25.184C185.183 25.604 185.281 26.164 185.281 26.864V39.632C185.281 41.032 184.693 42.082 183.517 42.782C182.537 43.398 181.361 43.86 179.989 44.168C178.645 44.504 177.175 44.672 175.579 44.672C174.067 44.672 172.667 44.504 171.379 44.168C170.119 43.832 169.027 43.314 168.103 42.614C167.179 41.914 166.465 41.018 165.961 39.926C165.457 38.806 165.205 37.462 165.205 35.894V23.882ZM187.634 16.658C187.914 16.574 188.362 16.49 188.978 16.406C189.594 16.294 190.224 16.238 190.868 16.238C191.484 16.238 192.03 16.28 192.506 16.364C193.01 16.448 193.43 16.616 193.766 16.868C194.102 17.12 194.354 17.47 194.522 17.918C194.69 18.338 194.774 18.898 194.774 19.598V23.714C195.474 23.434 196.132 23.238 196.748 23.126C197.392 23.014 198.092 22.958 198.848 22.958C200.192 22.958 201.466 23.196 202.67 23.672C203.874 24.148 204.938 24.848 205.862 25.772C206.786 26.668 207.514 27.788 208.046 29.132C208.578 30.476 208.844 32.03 208.844 33.794C208.844 35.614 208.564 37.21 208.004 38.582C207.472 39.926 206.716 41.046 205.736 41.942C204.756 42.838 203.552 43.524 202.124 44C200.724 44.448 199.17 44.672 197.462 44.672C195.614 44.672 194.046 44.448 192.758 44C191.47 43.58 190.378 43.048 189.482 42.404C188.25 41.536 187.634 40.416 187.634 39.044V16.658ZM197.462 39.044C198.75 39.044 199.744 38.61 200.444 37.742C201.172 36.846 201.536 35.53 201.536 33.794C201.536 32.03 201.172 30.714 200.444 29.846C199.716 28.978 198.736 28.544 197.504 28.544C196.944 28.544 196.454 28.6 196.034 28.712C195.642 28.824 195.208 28.992 194.732 29.216V38.372C195.04 38.568 195.404 38.736 195.824 38.876C196.272 38.988 196.818 39.044 197.462 39.044Z" fill="#282828"/>
<path d="M16.1495 13C20.2916 13 23.6495 16.2647 23.6495 20.292C23.6495 23.3053 21.7683 25.8887 19.0865 27C17.0184 23.4787 12.9343 21.664 8.94248 22.2965C8.7553 21.6592 8.64951 20.9877 8.64951 20.292C8.64951 16.2647 12.0074 13 16.1495 13Z" fill="#FFB021"/>
<path d="M0.410403 36.0565C-1.11029 31.1171 1.72649 25.9001 6.74654 24.4038C11.7666 22.9076 17.0689 25.6987 18.5896 30.6381C20.1103 35.5775 17.2735 40.7945 12.2535 42.2908L3.16386 45L0.410403 36.0565Z" fill="#FFB021"/>
</svg>
